<svg width="61" height="60" viewBox="0 0 61 60" fill="none" xmlns="http://www.w3.org/2000/svg">
<path d="M25.4175 18.288C26.9941 18.1955 28.5612 17.9823 30.1053 17.6505C31.1143 16.9148 31.9356 15.9515 32.5025 14.8389C33.0694 13.7263 33.366 12.4956 33.368 11.2469C33.368 6.99034 29.1865 2.80879 24.9299 2.80879C22.6423 2.80879 16.9512 0.821144 14.9448 0.0617141C14.8141 0.0117651 14.6738 -0.00826618 14.5342 0.00309057C14.3947 0.0144473 14.2595 0.0569038 14.1385 0.127344C14.0177 0.198979 13.9146 0.29683 13.8367 0.41367C13.7588 0.530509 13.7082 0.663354 13.6885 0.802393C13.6322 1.19617 12.3478 10.6094 17.57 15.4941C19.7214 17.4131 22.5374 18.4157 25.4175 18.288ZM15.4417 2.23687C17.6732 3.04318 22.5016 4.68392 24.9299 4.68392C26.6282 4.81152 28.2244 5.54395 29.4286 6.74819C30.6329 7.95243 31.3653 9.54863 31.4929 11.2469C31.4959 12.0501 31.3391 12.8458 31.0317 13.5879C30.7243 14.3299 30.2723 15.0034 29.7021 15.5691L21.8735 6.86846C21.7069 6.68321 21.4735 6.57172 21.2247 6.55854C20.9759 6.54535 20.732 6.63154 20.5468 6.79814C20.3615 6.96474 20.2501 7.19811 20.2369 7.4469C20.2237 7.6957 20.3099 7.93955 20.4765 8.1248L27.7801 16.2348C23.9174 16.7504 20.9171 16.0566 18.8545 14.1252C15.3386 10.8437 15.2824 4.77768 15.4417 2.23687Z" fill="#439A4D"/>
<path d="M32.5055 23.2759C33.0961 25.7979 34.8681 27.3637 37.1183 27.3637C41.178 27.3637 45.5564 25.3104 45.5564 20.8007C45.6765 18.3422 45.99 15.897 46.494 13.4877C46.5398 13.2622 46.5012 13.0277 46.3853 12.8289C46.2695 12.6301 46.0846 12.4808 45.8658 12.4095C45.547 12.3064 42.5187 11.4719 36.7152 14.3409C35.1166 15.1464 33.8337 16.4637 33.0707 18.083C32.3078 19.7023 32.1088 21.5304 32.5055 23.2759ZM37.5027 16.0191C39.5582 14.8543 41.8564 14.1834 44.2157 14.0596H44.4407C44.0151 16.2712 43.7612 18.5124 43.6813 20.7632C43.6813 23.9884 40.2779 25.451 37.1183 25.451C36.8936 25.4532 36.6697 25.4248 36.4526 25.3667L40.6904 19.4319C40.8337 19.2301 40.8915 18.98 40.8511 18.7358C40.8107 18.4917 40.6754 18.2735 40.4748 18.1286C40.3746 18.0562 40.2611 18.0043 40.1407 17.976C40.0204 17.9476 39.8956 17.9433 39.7736 17.9634C39.6516 17.9834 39.5348 18.0274 39.4299 18.0928C39.3249 18.1581 39.234 18.2436 39.1622 18.3443L34.9525 24.251C34.6642 23.808 34.4519 23.32 34.3244 22.8071C34.0321 21.4836 34.1853 20.1006 34.7601 18.873C35.3348 17.6455 36.299 16.6422 37.5027 16.0191Z" fill="#439A4D"/>
<path d="M50.6287 37.4988C50.6287 35.3236 47.4409 33.8891 40.4561 32.8672C40.3329 32.8487 40.2074 32.8547 40.0866 32.8847C39.9657 32.9148 39.852 32.9684 39.7519 33.0424C39.6518 33.1164 39.5672 33.2094 39.503 33.316C39.4389 33.4227 39.3963 33.541 39.3778 33.6641C39.3594 33.7872 39.3653 33.9128 39.3954 34.0336C39.4255 34.1544 39.479 34.2682 39.553 34.3683C39.627 34.4684 39.72 34.553 39.8267 34.6171C39.9334 34.6813 40.0517 34.7239 40.1748 34.7423C48.6129 35.9893 48.7535 37.555 48.7535 37.555C48.7535 38.8301 42.1155 41.3053 30.0022 41.3053C17.8888 41.3053 11.2508 38.8301 11.2508 37.555C11.2508 36.2799 17.87 33.8048 30.0022 33.8048C30.2508 33.8048 30.4893 33.706 30.6651 33.5302C30.841 33.3543 30.9397 33.1159 30.9397 32.8672C30.9397 32.6185 30.841 32.3801 30.6651 32.2042C30.4893 32.0284 30.2508 31.9296 30.0022 31.9296C20.1015 31.9296 9.46006 33.6829 9.37568 37.555V37.6113C9.37568 38.7645 10.0976 60.0004 30.0022 60.0004C49.9067 60.0004 50.6287 38.7645 50.6287 37.555V37.4988ZM30.0022 43.1242C37.2683 43.1242 44.9376 42.1866 48.5379 40.1615C48.4441 40.8178 48.3222 41.5772 48.1535 42.3835C47.3847 42.7773 42.5281 44.9993 30.0022 44.9993C17.4763 44.9993 12.6384 42.7773 11.8509 42.3835C11.6821 41.5772 11.5602 40.8178 11.4665 40.1615C15.0667 42.1866 22.736 43.1242 30.0022 43.1242ZM30.0022 58.1253C22.2579 58.1253 16.7543 54.7031 13.651 47.9433C13.1674 46.8755 12.7571 45.776 12.4228 44.6524C14.8605 45.5244 20.2046 46.8745 30.0022 46.8745C39.7998 46.8745 45.1439 45.5244 47.5816 44.6524C47.2473 45.776 46.8369 46.8755 46.3534 47.9433C43.25 54.7031 37.7465 58.1253 30.0022 58.1253Z" fill="#439A4D"/>
<path d="M54.3789 20.6226C51.2756 20.6226 48.7535 23.9884 48.7535 28.1231C48.708 29.3487 48.937 30.569 49.4236 31.6947C49.9103 32.8205 50.6423 33.8233 51.5662 34.6298V57.1877C51.5662 57.9337 51.8626 58.6491 52.39 59.1766C52.9175 59.7041 53.633 60.0004 54.3789 60.0004C55.1249 60.0004 55.8403 59.7041 56.3678 59.1766C56.8953 58.6491 57.1916 57.9337 57.1916 57.1877V34.6298C58.1156 33.8233 58.8476 32.8205 59.3342 31.6947C59.8209 30.569 60.0498 29.3487 60.0043 28.1231C60.0043 23.9884 57.4823 20.6226 54.3789 20.6226ZM55.7665 33.336C55.6297 33.4193 55.5164 33.5363 55.4377 33.6758C55.3589 33.8153 55.3172 33.9727 55.3165 34.1329V57.1877C55.3165 57.4364 55.2177 57.6749 55.0419 57.8507C54.8661 58.0265 54.6276 58.1253 54.3789 58.1253C54.1303 58.1253 53.8918 58.0265 53.716 57.8507C53.5401 57.6749 53.4414 57.4364 53.4414 57.1877V34.1329C53.4407 33.9727 53.399 33.8153 53.3202 33.6758C53.2414 33.5363 53.1282 33.4193 52.9913 33.336C51.5662 32.4547 50.6287 30.4108 50.6287 28.1231C50.6287 25.076 52.3444 22.4977 54.3789 22.4977C56.4134 22.4977 58.1292 25.076 58.1292 28.1231C58.1292 30.4108 57.1916 32.4547 55.7665 33.336Z" fill="#439A4D"/>
<path d="M11.2508 30.9358V21.5601C11.2508 21.3115 11.152 21.073 10.9762 20.8972C10.8004 20.7214 10.5619 20.6226 10.3132 20.6226C10.0646 20.6226 9.82611 20.7214 9.65028 20.8972C9.47446 21.073 9.37568 21.3115 9.37568 21.5601V27.1855H6.56297V21.5601C6.56297 21.3115 6.46419 21.073 6.28837 20.8972C6.11254 20.7214 5.87406 20.6226 5.62541 20.6226C5.37675 20.6226 5.13827 20.7214 4.96245 20.8972C4.78662 21.073 4.68784 21.3115 4.68784 21.5601V27.1855H1.87514V21.5601C1.87514 21.3115 1.77636 21.073 1.60053 20.8972C1.4247 20.7214 1.18623 20.6226 0.937568 20.6226C0.688909 20.6226 0.450435 20.7214 0.274607 20.8972C0.0987792 21.073 0 21.3115 0 21.5601L0 30.9358C0.000619805 31.7668 0.277187 32.574 0.786277 33.2307C1.29537 33.8874 2.00815 34.3565 2.8127 34.5642V57.1877C2.8127 57.9337 3.10904 58.6491 3.63652 59.1766C4.16401 59.7041 4.87943 60.0004 5.62541 60.0004C6.37138 60.0004 7.0868 59.7041 7.61429 59.1766C8.14177 58.6491 8.43811 57.9337 8.43811 57.1877V34.5642C9.24266 34.3565 9.95545 33.8874 10.4645 33.2307C10.9736 32.574 11.2502 31.7668 11.2508 30.9358ZM9.37568 30.9358C9.37568 31.4331 9.17812 31.9101 8.82646 32.2617C8.47481 32.6134 7.99786 32.811 7.50054 32.811C7.25188 32.811 7.01341 32.9097 6.83758 33.0856C6.66175 33.2614 6.56297 33.4999 6.56297 33.7485V57.1877C6.56297 57.4364 6.46419 57.6749 6.28837 57.8507C6.11254 58.0265 5.87406 58.1253 5.62541 58.1253C5.37675 58.1253 5.13827 58.0265 4.96245 57.8507C4.78662 57.6749 4.68784 57.4364 4.68784 57.1877V33.7485C4.68784 33.4999 4.58906 33.2614 4.41323 33.0856C4.2374 32.9097 3.99893 32.811 3.75027 32.811C3.25295 32.811 2.77601 32.6134 2.42435 32.2617C2.07269 31.9101 1.87514 31.4331 1.87514 30.9358V29.0607H9.37568V30.9358Z" fill="#439A4D"/>
<path d="M26.9644 22.4977L23.2142 23.4353C23.0932 23.4619 22.9788 23.5122 22.8774 23.5832C22.776 23.6543 22.6897 23.7447 22.6234 23.8493C22.5572 23.9539 22.5123 24.0706 22.4914 24.1927C22.4705 24.3147 22.474 24.4397 22.5016 24.5604L23.4392 29.2482C23.4702 29.3945 23.5357 29.5312 23.6303 29.647C23.7249 29.7628 23.8458 29.8543 23.983 29.9139C24.1055 29.9734 24.2406 30.0023 24.3768 29.9983C24.545 29.9982 24.7102 29.9529 24.8549 29.867L29.5428 27.0543C29.6515 26.9892 29.7458 26.9028 29.8202 26.8002C29.8945 26.6976 29.9473 26.581 29.9754 26.4575C30.0034 26.3339 30.0061 26.2059 29.9833 26.0813C29.9605 25.9567 29.9127 25.838 29.8428 25.7323L27.9676 22.9196C27.8651 22.7537 27.7133 22.6238 27.5335 22.5482C27.3537 22.4726 27.1548 22.4549 26.9644 22.4977ZM25.0331 27.57L24.5361 25.0667L26.7769 24.5041L27.7145 25.948L25.0331 27.57Z" fill="#439A4D"/>
<path d="M24.3768 37.4988C24.3768 38.0551 24.5417 38.5989 24.8508 39.0615C25.1599 39.524 25.5991 39.8845 26.1131 40.0974C26.627 40.3103 27.1926 40.366 27.7382 40.2575C28.2838 40.1489 28.785 39.881 29.1783 39.4877C29.5717 39.0943 29.8396 38.5931 29.9481 38.0475C30.0567 37.5019 30.001 36.9364 29.7881 36.4224C29.5752 35.9085 29.2147 35.4692 28.7521 35.1601C28.2896 34.8511 27.7458 34.6861 27.1895 34.6861C26.4435 34.6861 25.7281 34.9824 25.2006 35.5099C24.6731 36.0374 24.3768 36.7528 24.3768 37.4988ZM28.127 37.4988C28.127 37.6842 28.072 37.8655 27.969 38.0197C27.866 38.1739 27.7196 38.294 27.5483 38.365C27.3769 38.436 27.1884 38.4545 27.0066 38.4184C26.8247 38.3822 26.6576 38.2929 26.5265 38.1618C26.3954 38.0306 26.3061 37.8636 26.2699 37.6817C26.2337 37.4998 26.2523 37.3113 26.3233 37.14C26.3942 36.9687 26.5144 36.8223 26.6686 36.7192C26.8228 36.6162 27.004 36.5612 27.1895 36.5612C27.4381 36.5612 27.6766 36.66 27.8524 36.8358C28.0283 37.0117 28.127 37.2501 28.127 37.4988Z" fill="#439A4D"/>
<path d="M36.5651 29.9983H32.8149C32.5662 29.9983 32.3277 30.097 32.1519 30.2729C31.9761 30.4487 31.8773 30.6872 31.8773 30.9358V36.5612C31.8773 36.8099 31.9761 37.0484 32.1519 37.2242C32.3277 37.4 32.5662 37.4988 32.8149 37.4988H32.9649L38.5903 36.5612C38.7293 36.5382 38.8614 36.484 38.9767 36.4029C39.0919 36.3217 39.1874 36.2156 39.256 36.0925C39.3249 35.9708 39.3657 35.8352 39.3754 35.6957C39.3852 35.5562 39.3636 35.4162 39.3122 35.2861L37.4371 30.5983C37.3691 30.4221 37.2495 30.2705 37.0939 30.1635C36.9383 30.0564 36.754 29.9988 36.5651 29.9983ZM33.7524 35.4549V31.8734H35.9276L37.1371 34.8924L33.7524 35.4549Z" fill="#439A4D"/>
<path d="M23.7861 53.5031C19.6889 51.8436 18.7514 48.6558 18.7514 48.5152C18.6904 48.274 18.5362 48.0669 18.3226 47.9394C18.1089 47.8119 17.8534 47.7746 17.6122 47.8355C17.371 47.8964 17.1639 48.0506 17.0364 48.2643C16.9089 48.4779 16.8716 48.7334 16.9325 48.9746C17.4186 50.4221 18.2286 51.7395 19.301 52.8265C20.3733 53.9135 21.6797 54.7413 23.1204 55.247C23.222 55.2872 23.3299 55.3095 23.4392 55.3126C23.6576 55.3131 23.8694 55.2374 24.0379 55.0984C24.2064 54.9595 24.3212 54.7661 24.3623 54.5515C24.4034 54.337 24.3684 54.1149 24.2632 53.9235C24.158 53.732 23.9892 53.5834 23.7861 53.5031Z" fill="#439A4D"/>
<path d="M25.3143 54.375H27.1895V56.2502H25.3143V54.375Z" fill="#439A4D"/>
</svg>
