<svg width="60" height="60" viewBox="0 0 60 60" fill="none" xmlns="http://www.w3.org/2000/svg">
<path d="M35.625 44.0625C36.1428 44.0625 36.5625 43.6428 36.5625 43.125C36.5625 42.6072 36.1428 42.1875 35.625 42.1875C35.1072 42.1875 34.6875 42.6072 34.6875 43.125C34.6875 43.6428 35.1072 44.0625 35.625 44.0625Z" fill="#ED9928"/>
<path d="M55.3104 48.8681C55.3118 48.8284 55.3125 48.7891 55.3125 48.75C55.3114 47.7558 54.9159 46.8026 54.2129 46.0996C53.5099 45.3966 52.5567 45.0011 51.5625 45V27.6562L54.9375 25.125C55.0547 25.0371 55.1497 24.9229 55.2148 24.7917C55.2799 24.6604 55.3134 24.5157 55.3125 24.3692C55.3116 24.2227 55.2763 24.0784 55.2096 23.948C55.1428 23.8175 55.0464 23.7045 54.9281 23.6181L46.875 17.733V7.5C47.1236 7.5 47.3621 7.40123 47.5379 7.22541C47.7137 7.0496 47.8125 6.81114 47.8125 6.5625V2.8125C47.8125 2.56386 47.7137 2.3254 47.5379 2.14959C47.3621 1.97377 47.1236 1.875 46.875 1.875H37.5C37.2514 1.875 37.0129 1.97377 36.8371 2.14959C36.6613 2.3254 36.5625 2.56386 36.5625 2.8125V6.5625C36.5625 6.81114 36.6613 7.0496 36.8371 7.22541C37.0129 7.40123 37.2514 7.5 37.5 7.5V10.8821L30.5531 5.80559C30.3926 5.68826 30.1989 5.62503 30 5.62503C29.8011 5.62503 29.6074 5.68826 29.4469 5.80559L5.07187 23.6181C4.95357 23.7045 4.85718 23.8175 4.79043 23.948C4.72369 24.0784 4.68845 24.2227 4.68753 24.3692C4.68662 24.5157 4.72007 24.6604 4.78519 24.7917C4.8503 24.9229 4.94528 25.0371 5.0625 25.125L8.4375 27.6562V45C7.44328 45.0011 6.4901 45.3966 5.78708 46.0996C5.08406 46.8026 4.68861 47.7558 4.6875 48.75C4.6875 48.7891 4.6882 48.8284 4.68961 48.8681C3.80518 49.0955 3.03412 49.6378 2.5211 50.3933C2.00808 51.1488 1.78836 52.0655 1.90316 52.9714C2.01795 53.8774 2.45938 54.7103 3.14462 55.3139C3.82985 55.9175 4.71181 56.2504 5.625 56.25H54.375C55.2882 56.2504 56.1701 55.9175 56.8554 55.3139C57.5406 54.7103 57.982 53.8774 58.0968 52.9714C58.2116 52.0655 57.9919 51.1488 57.4789 50.3933C56.9659 49.6378 56.1948 49.0955 55.3104 48.8681ZM38.4375 3.75H45.9375V5.625H38.4375V3.75ZM39.375 12.1875V7.5H45V16.3629L39.2863 12.1875H39.375ZM30 7.72359L52.7994 24.3848L50.6164 26.0221L30.5515 11.4293C30.3912 11.3127 30.1982 11.2499 30 11.2499C29.8018 11.2499 29.6088 11.3127 29.4485 11.4293L9.38355 26.0221L7.20058 24.3848L30 7.72359ZM3.75 52.5C3.75052 52.0077 3.94438 51.5354 4.28983 51.1846C4.63528 50.8339 5.10467 50.633 5.59687 50.625H5.5991C5.64703 50.6317 5.69496 50.6374 5.74383 50.6406C5.89918 50.6504 6.05454 50.6214 6.19587 50.5561C6.3372 50.4908 6.46005 50.3914 6.55335 50.2668C6.64664 50.1422 6.70744 49.9963 6.73026 49.8423C6.75307 49.6884 6.73718 49.5311 6.68402 49.3848C6.60644 49.182 6.5653 48.9671 6.5625 48.75C6.56309 48.2529 6.76082 47.7763 7.11232 47.4248C7.46383 47.0733 7.9404 46.8756 8.4375 46.875V54.375H5.625C5.1279 54.3744 4.65133 54.1767 4.29982 53.8252C3.94832 53.4737 3.75059 52.9971 3.75 52.5ZM44.0625 54.375H32.8125V33.75H44.0625V54.375ZM45.9375 54.375V32.8125C45.9375 32.5639 45.8387 32.3254 45.6629 32.1496C45.4871 31.9738 45.2486 31.875 45 31.875H31.875C31.6264 31.875 31.3879 31.9738 31.2121 32.1496C31.0363 32.3254 30.9375 32.5639 30.9375 32.8125V54.375H10.3125V27.6649L30 13.3467L49.6875 27.6649V54.375H45.9375ZM54.375 54.375H51.5625V46.875C52.0596 46.8756 52.5362 47.0733 52.8877 47.4248C53.2392 47.7763 53.4369 48.2529 53.4375 48.75C53.4348 48.9673 53.3936 49.1823 53.316 49.3853C53.2628 49.5316 53.2469 49.6888 53.2697 49.8428C53.2926 49.9968 53.3534 50.1427 53.4466 50.2673C53.5399 50.3919 53.6628 50.4913 53.8041 50.5566C53.9455 50.6218 54.1008 50.6509 54.2562 50.6411C54.305 50.6379 54.353 50.6321 54.4009 50.6255H54.4031C54.9004 50.6292 55.3758 50.8303 55.7248 51.1846C56.0738 51.5389 56.2678 52.0173 56.2641 52.5145C56.2603 53.0118 56.0592 53.4872 55.7049 53.8362C55.3507 54.1852 54.8723 54.3792 54.375 54.3755V54.375Z" fill="#ED9928"/>
<path d="M26.25 31.875H15C14.7514 31.875 14.5129 31.9738 14.3371 32.1496C14.1613 32.3254 14.0625 32.5639 14.0625 32.8125V45.9375C14.0625 46.1861 14.1613 46.4246 14.3371 46.6004C14.5129 46.7762 14.7514 46.875 15 46.875H26.25C26.4986 46.875 26.7371 46.7762 26.9129 46.6004C27.0887 46.4246 27.1875 46.1861 27.1875 45.9375V32.8125C27.1875 32.5639 27.0887 32.3254 26.9129 32.1496C26.7371 31.9738 26.4986 31.875 26.25 31.875ZM25.3125 38.4375H21.5625V33.75H25.3125V38.4375ZM19.6875 33.75V38.4375H15.9375V33.75H19.6875ZM15.9375 40.3125H19.6875V45H15.9375V40.3125ZM21.5625 45V40.3125H25.3125V45H21.5625Z" fill="#ED9928"/>
<path d="M36.5078 43.4935C36.7061 43.0151 36.479 42.4665 36.0006 42.2682C35.5222 42.0699 34.9736 42.2969 34.7753 42.7754C34.577 43.2538 34.804 43.8024 35.2825 44.0007C35.7609 44.199 36.3095 43.9719 36.5078 43.4935Z" fill="#ED9928"/>
</svg>
