<svg width="60" height="60" viewBox="0 0 60 60" fill="none" xmlns="http://www.w3.org/2000/svg">
<path d="M57.4031 20.9087H53.6445C53.0116 15.0236 49.6453 8.55798 43.8669 8.55798H15.2087C12.3464 8.55798 9.73746 10.2527 7.8627 13.3301C6.5707 15.4512 5.73516 18.0822 5.43117 20.9087H2.59699C1.16496 20.9087 0 22.0737 0 23.5056V26.5288C0 27.9608 1.16496 29.1258 2.59699 29.1258H3.2291C2.67504 30.3141 2.36355 31.6374 2.36355 33.0327V40.4867C1.74387 40.8988 1.3343 41.6027 1.3343 42.4011V43.9979C1.3343 45.2073 2.27391 46.1993 3.46102 46.2877V48.8233C3.46102 50.2672 4.6357 51.442 6.07969 51.442H13.7784C15.2223 51.442 16.3971 50.2674 16.3971 48.8233V46.2963H22.4641C22.869 46.6521 23.398 46.8699 23.978 46.8699H35.0977C35.6777 46.8699 36.2067 46.6521 36.6115 46.2963H42.6785V48.8233C42.6785 50.2672 43.8532 51.442 45.2973 51.442H52.9961C54.4399 51.442 55.6147 50.2674 55.6147 48.8233V46.2877C56.8018 46.1992 57.7413 45.2073 57.7413 43.9979V42.4011C57.7413 41.6027 57.3316 40.8988 56.7121 40.4867V37.5464C56.7121 37.0609 56.3187 36.6675 55.8332 36.6675C55.3477 36.6675 54.9543 37.0609 54.9543 37.5464V40.1026H36.6115C36.1935 39.7351 35.6487 39.5291 35.0977 39.5291H23.978C23.4195 39.5291 22.8755 39.741 22.4641 40.1026H4.12137V33.0326C4.12137 28.8195 7.59188 25.5117 11.6422 25.5117H15.3875L18.848 31.1571C19.8149 32.7344 21.5647 33.7142 23.4148 33.7142H35.6611C37.511 33.7142 39.2609 32.7344 40.2279 31.1571L43.6882 25.5117H47.4335C51.476 25.5117 54.9544 28.8108 54.9544 33.0326V33.4449C54.9544 33.9304 55.3478 34.3238 55.8333 34.3238C56.3188 34.3238 56.7122 33.9304 56.7122 33.4449C56.6895 33.216 56.8764 31.3343 55.8466 29.1258H57.4031C58.835 29.1258 60 27.9608 60 26.5288V23.5056C60 22.0737 58.835 20.9087 57.4031 20.9087ZM2.59699 27.368C2.13434 27.368 1.75781 26.9915 1.75781 26.5288V23.5056C1.75781 23.0429 2.13434 22.6665 2.59699 22.6665H5.31059C5.30449 22.8805 5.30074 23.0951 5.30074 23.3104V26.2683C4.9391 26.6076 4.60477 26.9752 4.30102 27.368H2.59699ZM14.6393 48.8233C14.6393 49.298 14.2532 49.6842 13.7784 49.6842H6.07969C5.60496 49.6842 5.21883 49.298 5.21883 48.8233V46.2963H14.6393V48.8233ZM53.8569 48.8233C53.8569 49.298 53.4708 49.6842 52.9961 49.6842H45.2973C44.8226 49.6842 44.4363 49.298 44.4363 48.8233V46.2963H53.8569V48.8233ZM55.4429 41.8606C55.4738 41.8606 55.5037 41.8648 55.5333 41.8701C55.5455 41.8723 55.5577 41.875 55.5698 41.878C55.8038 41.9371 55.9835 42.1519 55.9835 42.4011V43.9979C55.9835 44.291 55.736 44.5385 55.4429 44.5385C53.514 44.5385 39.298 44.5385 37.3962 44.5385V41.8606H55.4429ZM35.0977 41.287C35.3914 41.287 35.6382 41.5385 35.6382 41.8276V44.5713C35.6382 44.8474 35.4033 45.1119 35.0977 45.1119H23.978C23.6712 45.1119 23.4374 44.8464 23.4374 44.5713V41.8277C23.4374 41.5391 23.6832 41.2872 23.978 41.2872H35.0977V41.287ZM21.6796 41.8606V44.5386C19.828 44.5386 5.33355 44.5386 3.6327 44.5386C3.33961 44.5386 3.09211 44.2911 3.09211 43.9981V42.4013C3.09211 42.1521 3.27152 41.9374 3.5052 41.8783C3.51773 41.8751 3.53016 41.8723 3.54246 41.8701C3.57199 41.8648 3.60188 41.8607 3.6327 41.8607H21.6796V41.8606ZM10.016 23.8981V23.3104C10.016 20.4401 10.6814 17.7667 11.8896 15.7832C12.8756 14.1646 14.0544 13.2733 15.2087 13.2733H27.9492C28.4347 13.2733 28.8281 12.8799 28.8281 12.3944C28.8281 11.9088 28.4347 11.5154 27.9492 11.5154H15.2087C13.4176 11.5154 11.7057 12.7063 10.3883 14.8686C9.01465 17.124 8.25809 20.122 8.25809 23.3104V24.3958C7.84277 24.559 7.44223 24.7512 7.05855 24.9702V23.3104C7.05855 20.2188 7.75406 16.8874 9.36398 14.2446C10.9075 11.7111 12.9832 10.3159 15.2087 10.3159H43.8669C46.0925 10.3159 48.1683 11.7111 49.7118 14.2445C51.3157 16.8776 52.0172 20.1899 52.0172 23.3104V24.9703C51.6335 24.7513 51.2329 24.5591 50.8177 24.3959V23.3104C50.8177 20.1219 50.0611 17.1239 48.6873 14.8686C47.3701 12.7063 45.6581 11.5154 43.867 11.5154H32.0508C31.5653 11.5154 31.1719 11.9088 31.1719 12.3944C31.1719 12.8799 31.5653 13.2733 32.0508 13.2733H43.867C45.0214 13.2733 46.2001 14.1646 47.186 15.7831C48.3943 17.7668 49.0597 20.44 49.0597 23.3104V23.8981C48.5909 23.8143 48.0363 23.7594 47.5044 23.7552C47.5002 19.6827 44.186 16.3709 40.1126 16.3709C36.0395 16.3709 32.7255 19.6821 32.7207 23.754C30.1178 23.754 14.3254 23.754 11.6422 23.754C11.0926 23.754 10.4992 23.8116 10.016 23.8981ZM38.7291 30.2385C38.0795 31.2982 36.9039 31.9565 35.661 31.9565H23.4148C22.1719 31.9565 20.9963 31.2982 20.3467 30.2385L17.4493 25.5119H41.6264L38.7291 30.2385ZM37.3969 23.754C37.4018 22.2606 38.618 21.047 40.1126 21.047C41.6072 21.047 42.8234 22.2605 42.8283 23.754H37.3969ZM44.5863 23.754C44.5814 21.2913 42.5764 19.2892 40.1126 19.2892C37.6487 19.2892 35.6438 21.2913 35.6388 23.754H34.4783C34.4832 20.6514 37.0089 18.1287 40.1126 18.1287C43.2163 18.1287 45.7419 20.6514 45.7468 23.754H44.5863ZM58.2422 26.5288C58.2422 26.9915 57.8658 27.368 57.4031 27.368H54.7746C54.4709 26.9753 54.1365 26.6077 53.7749 26.2684V23.3104C53.7749 23.0972 53.7718 22.8822 53.7656 22.6665H57.403C57.8657 22.6665 58.2421 23.0429 58.2421 23.5056V26.5288H58.2422Z" fill="#00A1D8"/>
<path d="M22.588 35.2559C22.1025 35.2559 21.7091 35.6493 21.7091 36.1348C21.7091 36.6203 22.1025 37.0137 22.588 37.0137H36.4876C36.9731 37.0137 37.3665 36.6203 37.3665 36.1348C37.3665 35.6493 36.9731 35.2559 36.4876 35.2559H22.588Z" fill="#00A1D8"/>
<path d="M48.2644 28.7556C45.8906 28.7556 43.9595 30.6867 43.9595 33.0604C43.9595 35.434 45.8906 37.3653 48.2644 37.3653C50.6381 37.3653 52.5693 35.4341 52.5693 33.0604C52.5693 30.6866 50.6381 28.7556 48.2644 28.7556ZM48.2644 35.6076C46.8599 35.6076 45.7173 34.465 45.7173 33.0605C45.7173 31.6561 46.8599 30.5135 48.2644 30.5135C49.6689 30.5135 50.8114 31.6561 50.8114 33.0605C50.8116 34.465 49.669 35.6076 48.2644 35.6076Z" fill="#00A1D8"/>
<path d="M6.50637 33.0604C6.50637 35.4341 8.4375 37.3653 10.8112 37.3653C13.185 37.3653 15.116 35.4341 15.116 33.0604C15.116 30.6866 13.1849 28.7556 10.8112 28.7556C8.43762 28.7556 6.50637 30.6866 6.50637 33.0604ZM13.3583 33.0604C13.3583 34.4649 12.2157 35.6075 10.8114 35.6075C9.40688 35.6075 8.2643 34.4649 8.2643 33.0604C8.2643 31.656 9.40688 30.5134 10.8114 30.5134C12.2157 30.5134 13.3583 31.656 13.3583 33.0604Z" fill="#00A1D8"/>
</svg>
