<svg width="60" height="60" viewBox="0 0 60 60" fill="none" xmlns="http://www.w3.org/2000/svg">
<g clip-path="url(#clip0_41_335)">
<path d="M56.9546 30.0648H55.7657C54.5828 26.9051 52.4775 24.0098 49.6327 21.6343V13.4125C49.6327 12.8756 49.1976 12.4406 48.6608 12.4406C45.3996 12.4406 42.4462 14.117 40.7671 16.8675C38.9814 16.3091 37.1443 15.9277 35.2741 15.7243C35.8519 14.3435 36.1554 12.8443 36.1554 11.3391C36.1554 5.08665 31.0688 0 24.8163 0C18.5639 0 13.4772 5.08665 13.4772 11.3391C13.4772 14.5212 14.833 17.5612 17.1546 19.6959C16.2594 20.2586 15.4032 20.8739 14.5938 21.5426C10.2052 25.168 7.64713 29.9158 7.29944 35.0191C6.53304 34.7207 5.50708 34.1256 4.5441 33.2023C4.52492 33.1839 4.50574 33.1655 4.48644 33.1466C5.82963 31.5711 7.12734 29.5063 7.12734 27.4082C7.12734 25.4432 5.52873 23.8445 3.56363 23.8445C1.59853 23.8445 -8.65645e-05 25.4432 -8.65645e-05 27.4082C-8.65645e-05 29.6475 0.773563 31.5636 1.87637 33.091C1.04972 33.8978 0.391145 34.4042 0.382462 34.4108C-0.0444062 34.7364 -0.126566 35.3462 0.198834 35.7731C0.524363 36.1998 1.13421 36.2822 1.56095 35.9566C1.63819 35.8978 2.30479 35.3838 3.15166 34.5639C4.5108 35.884 6.06251 36.7383 7.27922 37.0537C7.58518 43.4053 11.3726 49.2798 17.5782 53.0013L17.0027 56.4542C16.8552 57.3389 17.1032 58.2387 17.6829 58.9232C18.2627 59.6076 19.1097 60.0003 20.0066 60.0003H22.0229C23.5177 60.0003 24.7811 58.9301 25.0268 57.4556L25.2536 56.0949C27.4727 56.6228 29.7615 56.8898 32.0733 56.8898C34.3824 56.8898 36.6712 56.6221 38.8926 56.0929L39.1197 57.4554C39.3654 58.9299 40.6287 60 42.1237 60H44.14C45.0368 60 45.8838 59.6075 46.4636 58.923C47.0434 58.2386 47.2913 57.3386 47.1438 56.4539L46.5661 52.9878C50.9421 50.3607 54.1745 46.6309 55.766 42.3757H56.9547C58.6339 42.3757 60 41.0095 60 39.3303V33.11C59.9999 31.4309 58.6338 30.0648 56.9546 30.0648ZM1.94376 27.4082C1.94376 26.5149 2.67037 25.7883 3.56363 25.7883C4.45689 25.7883 5.1835 26.5151 5.1835 27.4082C5.1835 28.6133 4.5086 30.0644 3.22579 31.628C2.50968 30.54 1.94376 29.1342 1.94376 27.4082ZM15.4211 11.3391C15.4211 6.15849 19.6357 1.94384 24.8163 1.94384C29.9969 1.94384 34.2116 6.15862 34.2116 11.3391C34.2116 12.83 33.8727 14.2537 33.2054 15.5724C32.8291 15.5581 32.4516 15.5508 32.0733 15.5508C31.1386 15.5508 30.2122 15.5951 29.2962 15.6794C29.7038 15.1656 29.9351 14.5707 29.9351 13.9309C29.9351 12.1646 28.1781 10.7374 25.7882 10.4296V7.21218C27.0968 7.44648 27.9913 8.1267 27.9913 8.7473C27.9913 9.28419 28.4264 9.71922 28.9632 9.71922C29.5 9.71922 29.9351 9.28419 29.9351 8.7473C29.9351 6.98099 28.1781 5.55382 25.7882 5.24605V5.11879C25.7882 4.5819 25.3531 4.14687 24.8163 4.14687C24.2796 4.14687 23.8444 4.5819 23.8444 5.11879V5.24605C21.4545 5.55395 19.6975 6.98099 19.6975 8.7473C19.6975 10.5136 21.4545 11.9408 23.8444 12.2486V15.466C22.5358 15.2317 21.6414 14.5515 21.6414 13.9309C21.6414 13.394 21.2062 12.959 20.6695 12.959C20.1327 12.959 19.6975 13.394 19.6975 13.9309C19.6975 15.3522 20.8355 16.5538 22.5249 17.1295C21.2847 17.5595 20.087 18.0743 18.9422 18.6704C16.7303 16.8938 15.4211 14.185 15.4211 11.3391ZM23.8444 10.2824C22.5358 10.0481 21.6414 9.3679 21.6414 8.7473C21.6414 8.1267 22.5358 7.44648 23.8444 7.21218V10.2824ZM25.7882 15.466V12.3958C27.0968 12.6301 27.9913 13.3103 27.9913 13.9309C27.9913 14.5515 27.0968 15.2317 25.7882 15.466ZM58.0561 39.3305C58.0561 39.9378 57.5619 40.432 56.9546 40.432H55.0775C54.6578 40.432 54.2857 40.7013 54.1543 41.0997C52.7498 45.363 49.5054 49.106 45.019 51.6395C44.6631 51.8404 44.4709 52.2424 44.5382 52.6457L45.2262 56.7736C45.2802 57.0982 45.1929 57.4153 44.9802 57.6666C44.7674 57.9178 44.4689 58.0562 44.1397 58.0562H42.1234C41.5828 58.0562 41.1258 57.6692 41.0369 57.1357L40.6355 54.7269C40.5901 54.455 40.4315 54.2151 40.199 54.067C40.0414 53.9666 39.86 53.9147 39.6768 53.9147C39.5897 53.9147 39.5021 53.9265 39.4164 53.9502C37.0408 54.611 34.5701 54.946 32.0733 54.946C29.5728 54.946 27.1019 54.6118 24.7298 53.9524C24.464 53.8786 24.1797 53.9212 23.9472 54.0692C23.7147 54.2173 23.5561 54.4572 23.5107 54.7291L23.1096 57.1358C23.0207 57.6691 22.5638 58.0562 22.0232 58.0562H20.0069C19.6777 58.0562 19.3791 57.9179 19.1663 57.6666C18.9536 57.4155 18.8662 57.0982 18.9204 56.7736L19.6062 52.6585C19.6734 52.2552 19.481 51.8528 19.1249 51.652C12.9108 48.1479 9.20078 42.3789 9.20078 36.2203C9.20078 25.8949 19.4614 17.4946 32.0733 17.4946C35.1129 17.4946 38.0867 17.9881 40.9124 18.961C41.375 19.1203 41.8835 18.911 42.1002 18.4725C43.2 16.2464 45.2877 14.7649 47.6889 14.4479V22.0946C47.6889 22.3895 47.8228 22.6685 48.0528 22.8529C50.9916 25.2099 53.1015 28.1449 54.1544 31.3407C54.2857 31.7392 54.658 32.0085 55.0776 32.0085H56.9546C57.5619 32.0085 58.0561 32.5026 58.0561 33.11V39.3305Z" fill="#DA7F79"/>
<circle cx="45" cy="30" r="2" fill="#DA7F79"/>
</g>
<defs>
<clipPath id="clip0_41_335">
<rect width="60" height="60" fill="white"/>
</clipPath>
</defs>
</svg>
